<?xml version="1.0" encoding="utf-8"?>
<svg viewBox="427.245 411.01 54.509 20.276" xmlns="http://www.w3.org/2000/svg">
  <rect x="427.245" y="411.01" width="54.509" height="20.276" style="stroke: rgb(255, 255, 255); fill: rgb(0, 0, 0);" transform="matrix(0.9999999999999999, 0, 0, 0.9999999999999999, 5.684341886080802e-14, 5.684341886080802e-14)"/>
  <g id="layer1" transform="matrix(0.9999999999999999, 0, 0, 0.9999999999999999, 308.58966064453125, 217.12226867675784)">
    <g id="g1481" transform="matrix(1.1580043,0,0,1.1580043,-17.850571,-30.894177)">
      <g id="g10" transform="matrix(0.26458333,0,0,0.26458333,94.423186,167.43071)">
        <path d="m 120.52,161.46 c -0.34,0 -0.68,0 -1.03,0 -1.25,-0.73 -2.5,-1.47 -3.76,-2.19 -6.48,-3.73 -12.96,-7.45 -19.45,-11.17 -0.28,-0.16 -0.41,-0.36 -0.41,-0.69 0.01,-8.99 0.01,-17.97 0,-26.96 0,-0.31 0.09,-0.51 0.37,-0.67 7.75,-4.47 15.5,-8.95 23.25,-13.43 0.36,-0.21 0.64,-0.21 1,0 7.74,4.49 15.5,8.96 23.25,13.44 0.26,0.15 0.37,0.34 0.37,0.64 0,9.01 -0.01,18.02 0,27.03 0,0.34 -0.16,0.52 -0.44,0.68 m -23.48,13.11" id="path2"/>
        <path d="m 97.97,120.45 c 0.97,-0.56 1.9,-1.1 2.82,-1.63 6.28,-3.63 12.56,-7.26 18.84,-10.89 0.27,-0.15 0.46,-0.16 0.73,-0.01 7.11,4.12 14.23,8.23 21.35,12.35 0.1,0.06 0.19,0.12 0.32,0.2 -1.04,0.6 -2.04,1.18 -3.04,1.76 -6.23,3.6 -12.46,7.2 -18.69,10.81 -0.23,0.13 -0.38,0.13 -0.61,0 -7.12,-4.13 -14.25,-8.25 -21.37,-12.38 -0.1,-0.06 -0.2,-0.12 -0.35,-0.21 z" id="path4" fill="#f67280"/>
        <path d="m 120.72,135.02 c 0,-0.31 0.11,-0.51 0.37,-0.66 7.12,-4.11 14.24,-8.22 21.35,-12.33 0.08,-0.05 0.17,-0.09 0.32,-0.16 0,0.18 0,0.3 0,0.41 0,8.23 0,16.46 0,24.69 0,0.24 -0.05,0.38 -0.28,0.51 -7.1,4.07 -14.2,8.15 -21.29,12.23 -0.14,0.08 -0.27,0.15 -0.45,0.25" id="path6" fill="#6c5b7b"/>
        <path d="m 97.26,121.87 c 0.15,0.08 0.26,0.14 0.37,0.2 7.13,4.12 14.25,8.25 21.38,12.36 0.2,0.11 0.29,0.23 0.29,0.47 -0.01,8.25 -0.01,16.51 -0.01,24.76 0,0.08 0,0.16 0,0.3 -0.13,-0.07 -0.23,-0.11 -0.32,-0.16 -7.16,-4.11 -14.31,-8.23 -21.47,-12.34 -0.18,-0.1 -0.25,-0.21 -0.25,-0.42" id="path8" fill="#c06c84"/>
        <ellipse style="fill: rgb(216, 216, 216); stroke: rgb(255, 255, 255); stroke-width: 0.979148px; transform-box: fill-box; transform-origin: 50% 50%;" cx="109.046" cy="140.647" rx="8.135" ry="12.965" transform="matrix(0.897966, -0.440065, 0.420811, 0.907402, -1.03846, 0.245877)"/>
      </g>
      <path d="m 129.29527,206.71869 c -0.37306,0.21431 -0.56091,-0.10319 -0.56356,-0.95779 l -0.005,-1.41023 c -0.003,-0.88371 0.18256,-1.43404 0.55562,-1.64836 0.37042,-0.21431 0.55827,0.12171 0.56092,1.00277 l 0.005,1.41023 c 0.003,0.85461 -0.18256,1.38907 -0.55298,1.60338 m -0.0132,-5.08529 c -1.11654,0.64558 -1.67216,1.76477 -1.66687,3.36021 l 0.005,1.41022 c 0.005,1.56634 0.56356,2.02936 1.6801,1.38378 1.1139,-0.64294 1.67217,-1.75155 1.66688,-3.31788 l -0.005,-1.41023 c -0.005,-1.59544 -0.56621,-2.07169 -1.68011,-1.4261" id="path32" style="stroke-width:0.264583" fill="#aaaaaa"/>
      <path d="M 122.993 203.095 C 122.688 202.916 122.534 203.181 122.532 203.894 L 122.528 205.071 C 122.525 205.809 122.677 206.268 122.982 206.447 C 123.285 206.626 123.438 206.346 123.441 205.61 L 123.445 204.433 C 123.447 203.72 123.295 203.274 122.993 203.095 M 122.982 207.34 C 122.069 206.8 121.616 205.866 121.62 204.534 L 121.624 203.358 C 121.628 202.051 122.084 201.664 122.997 202.202 C 123.907 202.739 124.363 203.665 124.359 204.972 L 124.355 206.149 C 124.351 207.481 123.893 207.878 122.982 207.34" id="path-1" style="stroke-width: 0.264583; transform-box: fill-box; transform-origin: 50% 50%;" transform="matrix(-1, 0, 0, -1, 0.000001, -0.000001)"/>
    </g>
  </g>
  <rect x="611.933" y="349.411" width="3.188" height="0.988" style="stroke: rgb(255, 255, 255); stroke-width: 0px; transform-origin: 613.527px 349.905px;" transform="matrix(0.484757065772, -0.87464892864, 0.864587008955, 0.50291192531, -180.337969299099, 73.399678899242)"/>
  <path style="fill: rgb(255, 255, 255); stroke: rgb(255, 255, 255); fill-rule: evenodd; paint-order: fill;" d="M 481.499 413.322 L 443.307 413.181 C 449.503 416.73 448.795 425.845 443.345 429.04 L 481.472 429.143 L 481.499 413.322 Z" transform="matrix(0.9999999999999999, 0, 0, 0.9999999999999999, 5.684341886080802e-14, 5.684341886080802e-14)"/>
  <text style="font-family: Arial, sans-serif; font-size: 6px; font-weight: 700; white-space: pre;" x="448.625" y="419.234" transform="matrix(0.9999999999999999, 0, 0, 0.9999999999999999, 5.684341886080802e-14, 5.684341886080802e-14)">PUBLIC</text>
  <text style="font-family: Arial, sans-serif; font-size: 6px; font-weight: 700; white-space: pre;" x="448.625" y="427.62" transform="matrix(0.9999999999999999, 0, 0, 0.9999999999999999, 5.684341886080802e-14, 5.684341886080802e-14)">DOMAIN</text>
</svg>