<?xml version="1.0" encoding="utf-8"?>
<svg viewBox="12.8251 4.6052 123.5333 141.5294" xmlns="http://www.w3.org/2000/svg">
  <g id="hi_nerd" transform="matrix(2.5608069896698, 0, 0, 2.5608069896698, -232.679443359375, -267.3332824707031)" style="">
    <g>
      <path d="M120.52,161.46c-0.34,0-0.68,0-1.03,0c-1.25-0.73-2.5-1.47-3.76-2.19c-6.48-3.73-12.96-7.45-19.45-11.17&#10;&#9;&#9;&#9;&#9;c-0.28-0.16-0.41-0.36-0.41-0.69c0.01-8.99,0.01-17.97,0-26.96c0-0.31,0.09-0.51,0.37-0.67c7.75-4.47,15.5-8.95,23.25-13.43&#10;&#9;&#9;&#9;&#9;c0.36-0.21,0.64-0.21,1,0c7.74,4.49,15.5,8.96,23.25,13.44c0.26,0.15,0.37,0.34,0.37,0.64c0,9.01-0.01,18.02,0,27.03&#10;&#9;&#9;&#9;&#9;c0,0.34-0.16,0.52-0.44,0.68 M120.19,161.25"/>
      <path fill="#F67280" d="M97.97,120.45c0.97-0.56,1.9-1.1,2.82-1.63c6.28-3.63,12.56-7.26,18.84-10.89&#10;&#9;&#9;&#9;&#9;c0.27-0.15,0.46-0.16,0.73-0.01c7.11,4.12,14.23,8.23,21.35,12.35c0.1,0.06,0.19,0.12,0.32,0.2c-1.04,0.6-2.04,1.18-3.04,1.76&#10;&#9;&#9;&#9;&#9;c-6.23,3.6-12.46,7.2-18.69,10.81c-0.23,0.13-0.38,0.13-0.61,0c-7.12-4.13-14.25-8.25-21.37-12.38&#10;&#9;&#9;&#9;&#9;C98.22,120.6,98.12,120.54,97.97,120.45z"/>
      <path fill="#6C5B7B" d="M120.72,135.02c0-0.31,0.11-0.51,0.37-0.66c7.12-4.11,14.24-8.22,21.35-12.33&#10;&#9;&#9;&#9;&#9;c0.08-0.05,0.17-0.09,0.32-0.16c0,0.18,0,0.3,0,0.41c0,8.23,0,16.46,0,24.69c0,0.24-0.05,0.38-0.28,0.51&#10;&#9;&#9;&#9;&#9;c-7.1,4.07-14.2,8.15-21.29,12.23c-0.14,0.08-0.27,0.15-0.45,0.25"/>
      <path fill="#C06C84" d="M97.26,121.87c0.15,0.08,0.26,0.14,0.37,0.2c7.13,4.12,14.25,8.25,21.38,12.36&#10;&#9;&#9;&#9;&#9;c0.2,0.11,0.29,0.23,0.29,0.47c-0.01,8.25-0.01,16.51-0.01,24.76c0,0.08,0,0.16,0,0.3c-0.13-0.07-0.23-0.11-0.32-0.16&#10;&#9;&#9;&#9;&#9;c-7.16-4.11-14.31-8.23-21.47-12.34c-0.18-0.1-0.25-0.21-0.25-0.42"/>
    </g>
    <g/>
    <path fill="#aaaaaa" d="M131.8,148.49c-1.41,0.81-2.12-0.39-2.13-3.62l-0.02-5.33c-0.01-3.34,0.69-5.42,2.1-6.23&#10;&#9;&#9;&#9;c1.4-0.81,2.11,0.46,2.12,3.79l0.02,5.33C133.9,145.66,133.2,147.68,131.8,148.49 M131.75,129.27&#10;&#9;&#9;&#9;c-4.22,2.44-6.32,6.67-6.3,12.7l0.02,5.33c0.02,5.92,2.13,7.67,6.35,5.23c4.21-2.43,6.32-6.62,6.3-12.54l-0.02-5.33&#10;&#9;&#9;&#9;C138.08,128.63,135.96,126.83,131.75,129.27"/>
  </g>
</svg>